```plantuml
@startuml

abstract class Event {
}

abstract class KeyboardEvent {
}

class KeyboardInteractEvent {
  +PressedKey_System_Windows_Input_Key : System.Windows.Input.Key «get» «set»
  +PressedKeyName : string «get» «set»
  +ModifierKeys_System_Windows_Input_ModifierKeys : System.Windows.Input.ModifierKeys «get» «set»
  +ModifierKeysName : string «get» «set»
  +MappedCharacter_Unicode : char «get» «set»
}

KeyboardEvent --|> Event
KeyboardInteractEvent --|> KeyboardEvent

@enduml
```