```plantuml
@startuml

class EspecificarCompetenciaTecnicaUI {
}

class EspecificarCompetenciaTecnicaController {
  +getAreasAtividade()
  +getAreaAtividadeById(areaAtividadeId)
  +addGP(valor, designacao)
  +registaCompetenciaTecnica()
}

class Plataforma {
  -String designacao
  +getRegistoCompetenciaTecnica()
  +getRegistoAreaAtividade()
}

class RegistoCompetenciaTecnica {
  +CompetenciaTecnica(String cod, String dsBreve, String dsDet, AreaAtividade areaAtividade, GrauProficiencia gp)
  +novaCompetenciaTecnica(String cod, String dsBreve, String dsDet, areaAtividade)
  +validaCompetenciaTecnica(competencia)
  +registaCompetenciaTecnica(competencia)
  -addCompetenciaTecnica(CompetenciaTecnica competencia)
}

class RegistoAreaAtividade {
  +getAreasAtividade()
  +getAreaAtividadeById(areaAtividadeId)
}

class CompetenciaTecnica {
  -String codigo
  -String descBreve
  -String descDetalhada
  -AreaAtividade areaAtividade
  +CompetenciaTecnica(String cod, String dsBreve, String dsDet, AreaAtividade areaAtividade, GrauProficiencia gp)
  +CompetenciaTecnica(String cod, String dsBreve, AreaAtividade areaAtividade)
  -addGP(valor, designacao)
  -validaGP(gp)
  -addGP(gp)
}

class GrauProficiencia {
  -String designacao
  -Int valor
  +GrauProficiencia(valor,designacao)
}

class AreaAtividade {
  -String codigo
  -String descBreve
  -String descDetalhada
}

EspecificarCompetenciaTecnicaUI ..> EspecificarCompetenciaTecnicaController
EspecificarCompetenciaTecnicaController ..> Plataforma
EspecificarCompetenciaTecnicaController ..> RegistoCompetenciaTecnica
EspecificarCompetenciaTecnicaController ..> RegistoAreaAtividade

Plataforma "1" -- "1" RegistoCompetenciaTecnica : possui
Plataforma "1" -- "1" RegistoAreaAtividade : possui

RegistoCompetenciaTecnica "1" -- "*" CompetenciaTecnica : possui

CompetenciaTecnica "*" -- "1" AreaAtividade : referente

CompetenciaTecnica "1" -- "0..*" GrauProficiencia : possui

RegistoAreaAtividade "1" -- "*" AreaAtividade : possui

@enduml
```