```plantuml
@startuml

title UC10-B - Seriar Candidaturas de Anúncios (automaticamente)

class Colaborador {
  □ String nome
  □ Email email
  □ String funcao
  □ String telefone
}

class UC10_UI <<C>> {
  ■ getAllAnunciosASeriar(emailColaborador, idRegimentoAutomatico)
  ■ listaAnunciosASeriar(emailColaborador, idRegimentoAutomatico)
  ■ getAllCandidaturas(idAnuncio)
  ■ listaCandidaturas(idAnuncio)
  ■ saveClassificacaoAutomatica(idAnuncio)
  ■ listaCandidaturasSeriadas(idAnuncio)
  ■ saveSeriacao(idAnuncio, dataSeriacao, listaCandidaturasSeriadas(idAnuncio))
}

class UC10_CTRL <<C>> {
  ■ getAllAnunciosASeriar(emailColaborador, idRegimentoManual)
  ■ listaAnunciosASeriar(emailColaborador, idRegimentoManual)
  ■ getAllCandidaturas(idAnuncio)
  ■ listaCandidaturas(idAnuncio)
  ■ saveClassificacaoAutomatica(idAnuncio)
  ■ listaCandidaturasSeriadas(idAnuncio)
  ■ saveSeriacao(idAnuncio, dataSeriacao, listaCandidaturasSeriadas(idAnuncio))
}

class RepositorioAnuncio <<C>> {
}

class RepositorioCandidatura <<C>> {
}

class RepositorioClassificacao <<C>> {
  ■ saveClassificacaoAutomatica(idAnuncio)
}

class RepositorioSeriacao <<C>> {
  ■ saveSeriacao(idAnuncio, dataSeriacao, listaCandidaturasSeriadas(idAnuncio))
}

Colaborador --> UC10_UI
UC10_UI --> UC10_CTRL
UC10_CTRL ..> RepositorioAnuncio
UC10_CTRL ..> RepositorioCandidatura
UC10_CTRL ..> RepositorioClassificacao
UC10_CTRL ..> RepositorioSeriacao

@enduml
```