```plantuml
@startuml

title AnisotropType Referenced-by View

package "work-product-component Entities" {
    class VelocityModeling <<work-product-component>> #Gold {
        AnisotropyType
    }
}

abstract class AbstractReferenceType <<Abstraction>> #LightBlue {
}

class AnisotropyType <<reference-data>> #Cyan {
}

AnisotropyType --|> AbstractReferenceType

VelocityModeling --> AnisotropyType

@enduml
```