@startuml
class MonoBehaviour {
}

class DrumCS {
  +SE_Endtime : float
  -Start() : void
  -Update() : void
  -OnTriggerEnter(coll:Collider) : void
}

class GameObject {
}

class AudioClip {
}

MonoBehaviour <|-- DrumCS

DrumCS --> GameObject : explosionPrefab
DrumCS --> GameObject
DrumCS --> AudioClip : ExplosionPlayerExplosion_SE

@enduml