```plantuml
@startuml
package patient {
  package care {
    class Box
    class BoxDAO
    class Date
    class Doctor
    class Patient
    class PatientsForm
    class Person
    class DoctorDAO
    class PatientCare
    class PatientDAO
  }
}

package com {
  package sun {
    package glass {
      package events {
        class KeyEvent
      }
    }
  }
}

package java {
  package util {
    class ArrayList
    class Calendar
  }
}

package javax {
  package swing {
    class JComboBox
    class JFrame
    class JOptionPane
  }
}

Doctor --|> Person
Patient --|> Person
PatientsForm --> JFrame
@enduml
```