```plantuml
@startuml
abstract class "Embarcacion" as A {
    <<abstract>>
    - capitan: Capitan
    - precioBase: double
    - valorAdicional: double
    - AñoDeFabricacion: int
    + montoDeAlquiler(): double
}

class "Capitan" as C {
    - nombre: String
    - apellido: String
    - matricula: int
    + Capitan(nombre String, apellido String, matricula int): void
}

interface "Comparable" as I {
    + compareTo(o Object): int
}

class "Yate" as Y {
    - cantCamarotes: int
    + compareTo(o Object): int
}

class "Velero" as V {
    - cantMastiles: int
    + esGrande(): boolean
}

A --|> I : implements
Y --|> I : implements
Y --|> A : extends
V --|> A : extends
A --> "1" C : "1"

skinparam classAttributeIconSize 0
@enduml
```