@startuml
!define CIRCLE "C"
!define OVAL "o"

class "PropertyValueList" {
  [C] lookupLabel
  [O] propertyValuePair
}

class "NumericalProperty" {
  [C]
}

class "StringProperty" {
  [C]
}

PropertyValueList --> NumericalProperty : propertyValuePair
PropertyValueList --> StringProperty : propertyValuePair

@enduml