@startuml
title B) Domain Repo inherits from JpaRepo, specialised repos extend Domain Repo

interface JpaRepository {
}

interface DomainRepository {
}

interface SpecialisedRepositoryA {
}

interface SpecialisedRepositoryB {
}

JpaRepository <|-- DomainRepository
DomainRepository <|-- SpecialisedRepositoryA
DomainRepository <|-- SpecialisedRepositoryB

@enduml