@startuml
title PressureMeasurementType Referenced-by View

skinparam shadowing false
skinparam roundcorner 10
skinparam packageStyle rectangle
skinparam classAttributeIconSize 0

package "work-product-component Entities" as WPC {
  class "RockSampleAnalysis" as RockSampleAnalysis <<work-product-component>> {
    RCAMeasurements[].Conditions.PressureMeasurementTypeID
  }
  RockSampleAnalysis #FFD700
}

class "AbstractReferenceType" as AbstractReferenceType <<Abstraction>> #87CEFA
class "PressureMeasurementType" as PressureMeasurementType <<reference-data>> #40E0D0

RockSampleAnalysis --> PressureMeasurementType

AbstractReferenceType <|-- PressureMeasurementType
@enduml