@startuml
skinparam classAttributeIconSize 0

class CreateMemberController
class MembersDao
class MembersManagementView
class UpdateMemberDialog
class CreateMemberDialog
class Member

CreateMemberController ..> Member
MembersDao ..> Member
MembersManagementView o..> Member
UpdateMemberDialog ..> Member
CreateMemberDialog --> Member
@enduml