```plantuml
@startuml
class Groupe {
  + Groupe()
  + ajouterEtudiant(Etudiant etudiant)
  + supprimerEtudiant(Etudiant etudiant)
  + calculerMoyenneMatiereGroupe(String matiere) : float
  + calculerMoyenneGeneraleGroupe() : float
  + triParMerite() : void
  + triAlpha() : void
}

class Etudiant {
  - notes : Map<String, ArrayList<Float>>
  + Etudiant(Indentite, Formation)
  + ajouterNote(String m, float note)
  + calculMoyenneMatiere(String m) : float
  + calculMoyenneGeneral() : float
  + getNotes() : Map<String, ArrayList<Float>>
  + getIdentite() : Identite
  + getFormation() : Formation
  + compareTo() : int
}

class Identite {
  - nip : String
  - nom : String
  - prenom : String
  + getNip() : String
  + getNom() : String
  + getPrenom() : String
}

class Formation {
  - identifiant : int
  - coefficientsMatieres : Map<String, Float>>
  + ajouterMatiere(String m, float coeff)
  + supprimerMatiere(String m)
  + getCoeff(String m) : int
}

Groupe --> Etudiant : - etudiants
Groupe --> Formation : - formation
Etudiant --> Identite : - id
Etudiant --> Formation : - fo
@enduml
```