```plantuml
@startuml
class SubtractExpression {
  leftExpression IExpression
  rightExpression IExpression
  SubtractExpression(left IExpression, right IExpression)
  Interpret(context Context) int
}

class AddExpression {
  leftExpression IExpression
  rightExpression IExpression
  AddExpression(left IExpression, right IExpression)
  Interpret(context Context) int
}

class NumberExpression {
  name string
  NumberExpression(variableName string)
  Interpret(context Context) int
}

class Context {
  variables: Dictionary<string, int>
  Context()
  GetVariable(name string) int
  SetVariable(name string, value int)
}

class Program {
  Main(args[] string)
}

class IExpression {
  Interpret(context Context) int
}

SubtractExpression <|-- IExpression
AddExpression <|-- IExpression
NumberExpression <|-- IExpression

Context <- Program
Program -> IExpression
@enduml
```