' Blob ID: 3aff844601eb0f3c2b80d91d990623b5b697ffa4
' Original Path: /diagrams/Resource_ProductOfferingPrice.puml
' Source: World of Code

@startuml
'
' Resource:  ProductOfferingPrice
' Source:    Product_Catalog_Management_4.1.0_oas.yaml
' Generated: 2020-11-18 16:35:42+0100
'
hide circle
hide methods
hide stereotype
show <<Enumeration>> stereotype
skinparam class {
   backgroundColor<<Enumeration>> #E6F5F7
   backgroundColor<<Ref>> #FFFFE0
   backgroundColor<<Pivot>> #FFFFFFF
   backgroundColor #FCF2E3
   backgroundColor<<SubResource>> MistyRose
}

skinparam legend {
   borderRoundCorner 0
   borderColor red
   backgroundColor white
}

'sequence: 19
class ProductOfferingPrice <extends  \nExtensible \nAddressable >  <<Pivot>> {
    description : String
    href : String
    id : String
    isBundle : Boolean
    lastUpdate : DateTime
    lifecycleStatus : String
    name : String
    percentage : Float
    price : Money
    priceType : String
    recurringChargePeriodLength : Integer
    recurringChargePeriodType : String
    unitOfMeasure : Quantity
    validFor : TimePeriod
    version : String
    @baseType : String
    @schemaLocation : String
    @type : String
}

'sequence: 22
class TargetProductSchema  {
    @schemaLocation : Uri [1]
    @type : String [1]
}

'sequence: 31
class TaxItem <extends  \nEntity >  {
    href : Uri
    id : String
    taxAmount : Money
    taxCategory : String
    taxRate : Float
    @baseType : String
    @schemaLocation : Uri
    @type : String
}

'sequence: 39
class ProductOfferingPriceRelationship <extends  \nExtensible >  <<Ref>> {
    href : String
    id : String
    name : String
    relationshipType : String
    @baseType : String
    @schemaLocation : Uri
    @type : String
}

'sequence: 46
class BundledProductOfferingPriceRelationship <extends  \nExtensible >  <<Ref>> {
    href : String
    id : String
    name : String
    @baseType : String
    @schemaLocation : Uri
    @type : String
}

'sequence: 54
class ProductOfferingTerm <extends  \nExtensible >  {
    description : String
    duration : Quantity
    name : String
    validFor : TimePeriod
    @baseType : String
    @schemaLocation : Uri
    @type : String
}

'sequence: 65
class ProductSpecificationCharacteristicValueUse <extends  \nExtensible >  {
    description : String
    id : String
    maxCardinality : Integer
    minCardinality : Integer
    name : String
    validFor : TimePeriod
    valueType : String
    @baseType : String
    @schemaLocation : Uri
    @type : String
}

'sequence: 75
class PricingLogicAlgorithm <extends  \nExtensible \nAddressable >  {
    description : String
    href : Uri
    id : String
    name : String
    plaSpecId : String
    validFor : TimePeriod
    @baseType : String
    @schemaLocation : Uri
    @type : String
}

'sequence: 83
class PlaceRef <extends  \nEntityRef >  <<Ref>> {
    href : Uri
    id : String
    name : String
    @baseType : String
    @referredType : String
    @schemaLocation : Uri
    @type : String
}

'sequence: 92
class ProductSpecificationRef <extends  \nEntityRef >  <<Ref>> {
    href : Uri
    id : String
    name : String
    version : String
    @baseType : String
    @referredType : String
    @schemaLocation : Uri
    @type : String
}

'sequence: 101
class ConstraintRef <extends  \nEntityRef >  <<Ref>> {
    href : Uri
    id : String
    name : String
    version : String
    @baseType : String
    @referredType : String
    @schemaLocation : Uri
    @type : String
}

'sequence: 114
class CharacteristicValueSpecification <extends  \nExtensible >  {
    isDefault : Boolean
    rangeInterval : String
    regex : String
    unitOfMeasure : String
    validFor : TimePeriod
    value : Any
    valueFrom : Integer
    valueTo : Integer
    valueType : String
    @baseType : String
    @schemaLocation : Uri
    @type : String
}

'sequence: 19
'processing edges for ProductOfferingPrice
'sequence: 117
'rule: General below rule
ProductOfferingPrice *-->  "0..*" ProductSpecificationCharacteristicValueUse : prodSpecCharValueUse

'sequence: 65
'processing edges for ProductSpecificationCharacteristicValueUse
'sequence: 121
'rule: General below rule
ProductSpecificationCharacteristicValueUse *-->   ProductSpecificationRef : productSpecification

'sequence: 129
'rule: General left rule
TaxItem "0..*" <-left-* ProductOfferingPrice : tax

'sequence: 131
'rule: General right rule
ProductOfferingPrice *-right-> "0..*" ProductOfferingPriceRelationship : popRelationship

'sequence: 133
'rule: General above rule
ProductOfferingTerm "0..*" <--* ProductOfferingPrice : productOfferingTerm

'sequence: 135
'rule: General above rule
BundledProductOfferingPriceRelationship "0..*" <--* ProductOfferingPrice : bundledPopRelationship

'sequence: 137
'rule: General above rule
PricingLogicAlgorithm "0..*" <--* ProductOfferingPrice : pricingLogicAlgorithm

'sequence: 139
'rule: General below rule - either none already or unable to place left / right of currently placed
ProductOfferingPrice *-->  "0..*" PlaceRef : place

'sequence: 141
'rule: General below rule - either none already or unable to place left / right of currently placed
ProductOfferingPrice *-->  "0..*" ConstraintRef : constraint

'sequence: 92
'processing edges for ProductSpecificationRef
'completed processing of edges for ProductSpecificationRef
'processing edges for ProductSpecificationRef
'sequence: 163
'rule: General below rule
ProductSpecificationRef *-->   TargetProductSchema : targetProductSchema

'sequence: 168
'rule: General below rule - either none already or unable to place left / right of currently placed
ProductSpecificationCharacteristicValueUse *-->  "0..*" CharacteristicValueSpecification : productSpecCharacteristicValue



'layout of the core: [ProductOfferingPrice, ProductSpecificationCharacteristicValueUse, ProductSpecificationRef] (seq=115)
'finished layout of the core (seq=126)
'y=9 : ProductOfferingTerm (10) BundledProductOfferingPriceRelationship (10) PricingLogicAlgorithm (10) (seq=171)
'y=10 : ProductOfferingPrice (10) TaxItem (9) ProductOfferingPriceRelationship (11) (seq=172)
'y=11 : ProductSpecificationCharacteristicValueUse (10) PlaceRef (10) ConstraintRef (9) (seq=173)
'y=12 : ProductSpecificationRef (10) CharacteristicValueSpecification (10) (seq=174)
'y=13 : TargetProductSchema (10) (seq=175)
@enduml
