' Blob ID: 781b1991e824c76d5d85b0b03d4fa5026deb3490
' Original Path: /language/java/design-pattern/structure/facade/facade.puml
' Source: World of Code

@startuml

abstract class DwarenMineWorker{
    goToSleep()
    wakeUp()
    goHome()
    goToMine()
    {abstract} String name()
    {abstract} void work()
}

class DwarenCartOperator
class DwarenGoldDigger
class DwarenTunneDigger

DwarenMineWorker <|-- DwarenCartOperator
DwarenMineWorker <|-- DwarenGoldDigger
DwarenMineWorker <|-- DwarenTunneDigger

class DwarenGoldmineFacade{
    Collection<DwarenMineWorker> worker
    -{static} makeAction(worker:Collection<DwarenMineWorker>,actions)
    +startNewDay()
    +digOutMine()
    +endDay()
}

@enduml
