' Blob ID: ff9a7c57219089275af74f9c0f845739347a2021
' Original Path: /static/plantuml/Scientist1.wsd
' Source: World of Code

@startuml


class Scientists{
  ssn: String
  name: String
}

class Projects{
  code: Int
  name: Int
  hours: Int
}

class AssignedTo{
}



Scientists "1" -- "*" AssignedTo

Projects "1" -- "*" AssignedTo


@enduml
